<svg width="1200" height="900" viewBox="0 0 1200 900" fill="none" xmlns="http://www.w3.org/2000/svg">
  <rect width="1200" height="900" rx="48" fill="url(#paint0_linear)"/>
  <rect x="96" y="96" width="1008" height="708" rx="36" fill="white" fill-opacity="0.9"/>
  <rect x="160" y="168" width="420" height="48" rx="12" fill="#E5E7EB"/>
  <rect x="160" y="236" width="520" height="32" rx="10" fill="#EEF2F7"/>
  <rect x="160" y="288" width="360" height="32" rx="10" fill="#EEF2F7"/>
  <rect x="160" y="360" width="200" height="56" rx="16" fill="#0EA5E9"/>
  <rect x="380" y="360" width="200" height="56" rx="16" fill="#F59E0B"/>
  <rect x="160" y="460" width="220" height="120" rx="24" fill="#F3F4F6"/>
  <rect x="400" y="460" width="220" height="120" rx="24" fill="#F3F4F6"/>
  <rect x="640" y="420" width="420" height="320" rx="28" fill="#0F172A"/>
  <rect x="680" y="460" width="340" height="28" rx="10" fill="#1E293B"/>
  <rect x="680" y="508" width="260" height="20" rx="10" fill="#334155"/>
  <rect x="680" y="560" width="300" height="120" rx="20" fill="#1E293B"/>
  <circle cx="980" cy="610" r="52" fill="#F59E0B"/>
  <defs>
    <linearGradient id="paint0_linear" x1="0" y1="0" x2="1200" y2="900" gradientUnits="userSpaceOnUse">
      <stop stop-color="#DBEAFE"/>
      <stop offset="1" stop-color="#FEE2E2"/>
    </linearGradient>
  </defs>
</svg>
