<svg width="1200" height="900" viewBox="0 0 1200 900" fill="none" xmlns="http://www.w3.org/2000/svg">
  <rect width="1200" height="900" rx="48" fill="#FFF7ED"/>
  <rect x="100" y="100" width="1000" height="700" rx="40" fill="white"/>
  <rect x="180" y="180" width="520" height="48" rx="12" fill="#E2E8F0"/>
  <rect x="180" y="250" width="420" height="28" rx="10" fill="#F1F5F9"/>
  <rect x="180" y="300" width="480" height="28" rx="10" fill="#F1F5F9"/>
  <rect x="180" y="380" width="260" height="140" rx="24" fill="#F3F4F6"/>
  <rect x="460" y="380" width="260" height="140" rx="24" fill="#F3F4F6"/>
  <rect x="180" y="550" width="260" height="140" rx="24" fill="#F3F4F6"/>
  <rect x="460" y="550" width="260" height="140" rx="24" fill="#F3F4F6"/>
  <circle cx="900" cy="420" r="140" fill="#0EA5E9"/>
  <path d="M860 420L892 452L950 394" stroke="white" stroke-width="20" stroke-linecap="round" stroke-linejoin="round"/>
  <rect x="760" y="600" width="280" height="60" rx="20" fill="#0F172A"/>
  <rect x="800" y="680" width="220" height="20" rx="10" fill="#334155"/>
</svg>
